#!OML:ASF F:\twosubjects\two\Thursday\Session 1\justin.ASF
:FULLY-SPECIFIED
:DEGREES
514
root -4.24908 17.6925 0.375433 -11.4854 60.0942 349.38
lowerback 4.36813 -4.1047 -2.6806
upperback 1.70502 -5.52872 3.24924
thorax -0.10598 -2.79145 5.07044
lowerneck -22.3391 0.740151 -5.63127
upperneck 32.5453 1.83928 5.12618
head 14.9587 0.940274 3.50325
rclavicle 6.97827e-014 -3.08116e-015
rhumerus -37.4474 34.3118 -81.9839
rradius 115.028
rwrist -46.5769
rhand 21.484 3.17578
rfingers 7.12502
rthumb 45.915 -19.9541
lclavicle 6.97827e-014 -3.08116e-015
lhumerus 11.38 -10.9197 87.0725
lradius 67.0023
lwrist 54.4313
lhand 7.24799 53.1208
lfingers 7.12502
lthumb 32.5117 80.2228
rfemur -19.5855 13.1043 13.2481
rtibia 34.326
rfoot -16.265 14.1473
rtoes -22.1557
lfemur -17.2686 -8.79858 3.17001
ltibia 18.4355
lfoot 3.83146 -17.3329
ltoes -35.6506
515
root -4.15312 17.6901 0.249352 -10.2852 58.7949 350.626
lowerback 4.32971 -4.01184 -3.28206
upperback 1.79632 -5.4305 3.33537
thorax 0.0653769 -2.75378 5.48613
lowerneck -21.9993 0.913953 -5.21647
upperneck 32.1781 2.07576 4.63041
head 14.7109 1.02263 3.2403
rclavicle 5.39825e-014 -1.97791e-014
rhumerus -38.1852 34.2553 -80.8338
rradius 115.539
rwrist -47.04
rhand 22.5144 3.70365
rfingers 7.12502
rthumb 46.8698 -19.0197
lclavicle 5.39825e-014 -1.97791e-014
lhumerus 10.5887 -10.5565 87.6989
lradius 69.3475
lwrist 53.786
lhand 7.52163 54.4711
lfingers 7.12502
lthumb 32.7721 81.5191
rfemur -19.8825 13.6783 12.3169
rtibia 34.239
rfoot -16.4424 14.6091
rtoes -22.7287
lfemur -16.3765 -8.67839 2.58648
ltibia 18.1111
lfoot 3.13382 -16.6887
ltoes -33.801
516
root -4.05537 17.6675 0.128278 -10.2557 57.3922 350.638
lowerback 4.54995 -3.90824 -2.95286
upperback 1.89161 -5.2807 3.32606
thorax -0.00835193 -2.67506 5.30206
lowerneck -21.8059 0.888752 -5.25486
upperneck 31.8471 1.94067 4.87202
head 14.5221 0.997415 3.30216
rclavicle 6.97486e-014 -2.9122e-014
rhumerus -38.8564 33.7598 -80.0559
rradius 115.786
rwrist -47.451
rhand 24.0174 4.38093
rfingers 7.12502
rthumb 48.2575 -17.7108
lclavicle 6.97486e-014 -2.9122e-014
lhumerus 9.69536 -10.7049 87.8201
lradius 71.6347
lwrist 53.5669
lhand 6.77799 55.2261
lfingers 7.12502
lthumb 32.0643 82.4191
rfemur -20.0677 14.2868 12.1551
rtibia 34.1291
rfoot -16.6396 14.7954
rtoes -24.9129
lfemur -15.5107 -7.46034 2.30191
ltibia 17.8588
lfoot 1.30732 -16.7869
ltoes -37.2728
517
root -3.95727 17.6316 0.0101029 -9.81366 55.9656 350.82
lowerback 4.62178 -3.82894 -2.72346
upperback 1.86075 -5.16631 3.27292
thorax -0.119311 -2.61248 5.12247
lowerneck -21.976 0.900143 -5.12595
upperneck 31.8529 1.87001 4.97006
head 14.5669 0.993947 3.31121
rclavicle -2.20185e-014 -1.88845e-015
rhumerus -39.6076 33.3442 -79.3856
rradius 115.952
rwrist -48.018
rhand 25.1209 5.07307
rfingers 7.12502
rthumb 49.2722 -16.5236
lclavicle -2.20185e-014 -1.88845e-015
lhumerus 8.72441 -10.8823 87.6899
lradius 73.7753
lwrist 53.3955
lhand 5.04473 55.6363
lfingers 7.12502
lthumb 30.4126 83.148
rfemur -20.5724 14.805 11.879
rtibia 34.0019
rfoot -17.0615 14.815
rtoes -27.1386
lfemur -15.0413 -5.72454 1.8458
ltibia 17.821
lfoot -0.186712 -16.7218
ltoes -40.8052
518
root -3.861 17.6092 -0.114548 -9.03838 54.6853 351.378
lowerback 4.56592 -3.79016 -3.04906
upperback 1.92664 -5.12767 3.43594
thorax 0.0207606 -2.60164 5.46612
lowerneck -22.7272 1.1567 -4.65365
upperneck 32.2372 2.44544 3.99591
head 14.8969 1.14244 2.96316
rclavicle -1.26166e-014 1.49089e-014
rhumerus -40.1286 33.3438 -78.1671
rradius 116.157
rwrist -49.5412
rhand 25.0117 5.75636
rfingers 7.12502
rthumb 49.1719 -15.8905
lclavicle -1.26166e-014 1.49089e-014
lhumerus 8.01493 -10.6402 87.9692
lradius 75.7971
lwrist 53.0039
lhand 3.88302 55.7978
lfingers 7.12502
lthumb 29.304 83.5089
rfemur -21.0839 15.1109 11.2374
rtibia 33.8048
rfoot -17.0542 15.1884
rtoes -26.2956
lfemur -14.6758 -4.62425 1.19154
ltibia 17.9897
lfoot -1.13552 -15.632
ltoes -40.5491
519
root -3.76711 17.5938 -0.242859 -8.60048 53.534 351.619
lowerback 4.49205 -3.69805 -3.38054
upperback 2.07229 -5.01554 3.76196
thorax 0.259764 -2.55981 5.97837
lowerneck -22.9519 0.948501 -6.04392
upperneck 31.8747 2.32135 5.03377
head 14.7466 1.07232 3.60029
rclavicle 6.61829e-014 -2.74323e-014
rhumerus -40.4556 33.0867 -76.5771
rradius 116.339
rwrist -51.1707
rhand 25.0801 6.07374
rfingers 7.12502
rthumb 49.2347 -15.5417
lclavicle 6.61829e-014 -2.74323e-014
lhumerus 7.39696 -10.4561 88.6761
lradius 77.7519
lwrist 52.4771
lhand 3.65759 55.658
lfingers 7.12502
lthumb 29.0887 83.4065
rfemur -21.4588 15.3205 10.7354
rtibia 33.5436
rfoot -16.491 15.7089
rtoes -23.6394
lfemur -14.3237 -3.58032 0.622552
ltibia 18.2066
lfoot -1.89501 -14.3432
ltoes -38.8408
520
root -3.67745 17.5794 -0.367109 -8.0541 52.4954 351.866
lowerback 4.29907 -3.71916 -2.85373
upperback 2.15598 -5.0247 3.28662
thorax 0.362672 -2.55917 5.16738
lowerneck -22.7828 1.00864 -5.69701
upperneck 31.6554 2.06587 5.53886
head 14.6228 1.08288 3.68858
rclavicle -4.40619e-014 4.62174e-015
rhumerus -40.8356 31.608 -76.0787
rradius 116.017
rwrist -50.0811
rhand 28.6139 6.80203
rfingers 7.12502
rthumb 52.4566 -13.0285
lclavicle -4.40619e-014 4.62174e-015
lhumerus 6.56684 -10.9287 88.1547
lradius 79.664
lwrist 52.1941
lhand 3.28136 55.5343
lfingers 7.12502
lthumb 28.7294 83.3442
rfemur -21.8876 15.5873 10.2316
rtibia 33.238
rfoot -16.366 15.8641
rtoes -22.9908
lfemur -14.1619 -1.93879 -0.11028
ltibia 18.3543
lfoot -2.68299 -13.7879
ltoes -37.6517
521
root -3.59197 17.5731 -0.489488 -7.46119 51.5966 352.323
lowerback 4.29648 -3.82106 -3.14976
upperback 2.26257 -5.17399 3.22375
thorax 0.512087 -2.64282 5.26595
lowerneck -22.7136 1.10667 -5.28751
upperneck 31.5959 2.10839 5.32484
head 14.5867 1.1178 3.53107
rclavicle 1.99325e-013 -1.47598e-014
rhumerus -41.4051 31.1356 -75.3858
rradius 115.796
rwrist -51.6539
rhand 29.8576 7.14025
rfingers 7.12502
rthumb 53.5789 -11.9786
lclavicle 1.99325e-013 -1.47598e-014
lhumerus 5.77159 -10.9162 88.1648
lradius 81.5114
lwrist 52.0445
lhand 3.22327 55.4964
lfingers 7.12502
lthumb 28.6739 83.3158
rfemur -22.1754 15.6571 9.60158
rtibia 32.9178
rfoot -16.0009 16.1283
rtoes -22.3411
lfemur -13.9683 -0.274777 -1.11607
ltibia 18.3916
lfoot -3.61965 -13.1725
ltoes -37.3161
522
root -3.50973 17.5718 -0.617446 -6.6697 50.8843 353.109
lowerback 4.78876 -4.21193 -0.730748
upperback 2.07792 -5.61571 0.868247
thorax -0.380916 -2.8088 1.57138
lowerneck -22.609 1.49754 -3.39567
upperneck 31.7408 1.52823 6.40724
head 14.6811 1.26197 3.55431
rclavicle 9.0944e-015 5.1684e-015
rhumerus -43.4105 29.386 -78.8624
rradius 115.152
rwrist -52.4194
rhand 31.6658 7.82734
rfingers 7.12502
rthumb 55.198 -10.1671
lclavicle 9.0944e-015 5.1684e-015
lhumerus 4.33418 -12.3164 84.8989
lradius 83.4002
lwrist 52.5411
lhand 3.82134 55.3172
lfingers 7.12502
lthumb 29.2451 83.0385
rfemur -22.3639 15.8329 8.66049
rtibia 32.5203
rfoot -15.0402 16.2873
rtoes -19.7525
lfemur -13.8534 1.32913 -2.49801
ltibia 18.328
lfoot -5.00309 -12.2262
ltoes -38.8149
523
root -3.43182 17.5773 -0.751173 -5.83783 50.2948 353.81
lowerback 5.0646 -4.3459 -0.0538498
upperback 1.96822 -5.77342 -0.0729992
thorax -0.806143 -2.87797 0.281103
lowerneck -22.4912 1.44687 -3.06238
upperneck 31.6009 1.05588 7.13661
head 14.6255 1.20814 3.70447
rclavicle 3.00165e-014 -3.97569e-015
rhumerus -44.4786 28.0825 -79.5071
rradius 114.55
rwrist -53.5608
rhand 32.9554 8.30005
rfingers 7.12502
rthumb 56.3425 -8.82084
lclavicle 3.00165e-014 -3.97569e-015
lhumerus 3.36418 -13.4397 83.8935
lradius 84.9905
lwrist 52.854
lhand 3.30995 54.438
lfingers 7.12502
lthumb 28.7567 82.2434
rfemur -22.5375 16.0856 7.76791
rtibia 31.8886
rfoot -14.5074 15.8425
rtoes -18.6445
lfemur -14.0157 2.73862 -3.84159
ltibia 18.3379
lfoot -6.6534 -11.2605
ltoes -40.409
524
root -3.35926 17.6027 -0.874958 -5.46533 49.7632 353.922
lowerback 5.14988 -4.36595 -1.02581
upperback 2.01308 -5.83901 0.55537
thorax -0.644048 -2.91793 1.45948
lowerneck -22.4129 1.15296 -3.7027
upperneck 31.3723 0.907356 7.0321
head 14.5095 1.0466 3.72955
rclavicle 5.03919e-014 2.38542e-015
rhumerus -44.5731 27.7479 -77.5613
rradius 113.959
rwrist -55.2613
rhand 33.8964 8.42749
rfingers 7.12502
rthumb 57.1718 -8.01452
lclavicle 5.03919e-014 2.38542e-015
lhumerus 2.69706 -13.8823 84.8856
lradius 86.5087
lwrist 52.7419
lhand 1.35535 53.2154
lfingers 7.12502
lthumb 26.8879 81.3231
rfemur -22.7048 16.0744 7.46756
rtibia 31.4166
rfoot -14.2504 15.1141
rtoes -18.5168
lfemur -14.035 2.93705 -4.33709
ltibia 18.2575
lfoot -6.50231 -10.4603
ltoes -36.6611
525
root -3.28985 17.6494 -0.993758 -5.24799 49.2582 353.87
lowerback 5.13159 -4.31762 -2.55553
upperback 2.18219 -5.83515 1.69199
thorax -0.184998 -2.93992 3.4474
lowerneck -22.3923 0.793861 -4.59461
upperneck 31.063 0.896136 6.54603
head 14.3626 0.858686 3.66264
rclavicle 4.14715e-014 -5.96354e-015
rhumerus -44.4074 27.7524 -74.8195
rradius 113.434
rwrist -57.0863
rhand 35.0922 8.39209
rfingers 7.12502
rthumb 58.2175 -7.13253
lclavicle 4.14715e-014 -5.96354e-015
lhumerus 2.31417 -14.1265 86.559
lradius 88.0226
lwrist 52.0438
lhand -0.161621 52.474
lfingers 7.12502
lthumb 25.4356 80.7969
rfemur -22.7618 15.6862 7.38443
rtibia 30.8734
rfoot -13.2501 14.8164
rtoes -16.3705
lfemur -13.8875 1.02222 -4.05067
ltibia 18.3769
lfoot -3.72227 -9.23423
ltoes -18.0037
526
root -3.22176 17.6262 -1.11653 -5.13563 48.7529 353.643
lowerback 5.2186 -4.33563 -3.32915
upperback 2.29768 -5.89075 2.44059
thorax 0.0516115 -2.98737 4.64791
lowerneck -22.21 0.55963 -5.2853
upperneck 30.546 0.896025 6.30633
head 14.0918 0.74022 3.65255
rclavicle -1.76918e-014 -9.93923e-015
rhumerus -44.5071 27.5843 -72.935
rradius 112.924
rwrist -58.4352
rhand 36.2421 8.58568
rfingers 7.12502
rthumb 59.2139 -5.99424
lclavicle -1.76918e-014 -9.93923e-015
lhumerus 1.95263 -14.527 87.716
lradius 89.3181
lwrist 50.9533
lhand -0.775245 52.0806
lfingers 7.12502
lthumb 24.8476 80.4859
rfemur -23.0856 14.8482 7.39236
rtibia 30.5628
rfoot -12.0634 14.9507
rtoes -14.1292
lfemur -14.7425 2.98021 -5.11357
ltibia 18.5858
lfoot -6.7447 -8.77134
ltoes -43.2886
